<?xml version="1.0" encoding="utf-8"?>
<!-- Generator: Adobe Illustrator 16.0.4, SVG Export Plug-In . SVG Version: 6.00 Build 0)  -->
<!DOCTYPE svg PUBLIC "-//W3C//DTD SVG 1.1//EN" "http://www.w3.org/Graphics/SVG/1.1/DTD/svg11.dtd">
<svg version="1.1" xmlns="http://www.w3.org/2000/svg" xmlns:xlink="http://www.w3.org/1999/xlink" x="0px" y="0px"
	 width="172.434px" height="30.303px" viewBox="0 0 172.434 30.303" enable-background="new 0 0 172.434 30.303"
	 xml:space="preserve">

<g id="Layer_2">
	<g>
		<circle fill="#FF00FF" cx="15.151" cy="15.151" r="15.151"/>
	</g>
	<g>
		<path fill="#FFFFFF" d="M19.695,12.796c0.938,0.177,1.599,0.573,1.984,1.188c0.385,0.615,0.578,1.583,0.578,2.906
			c0,2.625-0.789,4.773-2.367,6.445s-3.597,2.508-6.055,2.508c-0.969,0-1.909-0.175-2.82-0.523
			c-0.912-0.349-1.695-0.836-2.352-1.461c-0.75-0.688-1.312-1.414-1.688-2.18s-0.562-1.549-0.562-2.352
			c0-0.896,0.192-1.588,0.578-2.078c0.385-0.489,0.994-0.823,1.828-1c-0.156-0.364-0.271-0.672-0.344-0.922
			c-0.073-0.25-0.109-0.442-0.109-0.578c0-0.469,0.247-0.948,0.742-1.438c0.494-0.489,0.961-0.734,1.398-0.734
			c0.188,0,0.385,0.034,0.594,0.102c0.208,0.068,0.447,0.18,0.719,0.336c-0.803-2.271-1.386-4.023-1.75-5.258
			C9.705,6.523,9.523,5.671,9.523,5.203c0-0.646,0.166-1.159,0.5-1.539c0.333-0.38,0.786-0.57,1.359-0.57
			c0.979,0,2.219,2.188,3.719,6.562c0.26,0.75,0.458,1.328,0.594,1.734c0.114-0.323,0.275-0.781,0.484-1.375
			c1.5-4.333,2.791-6.5,3.875-6.5c0.531,0,0.955,0.18,1.273,0.539c0.317,0.359,0.477,0.841,0.477,1.445
			c0,0.458-0.175,1.297-0.523,2.516C20.932,9.234,20.403,10.828,19.695,12.796z M8.508,19.171c0.146,0.177,0.349,0.438,0.609,0.781
			c0.688,0.948,1.322,1.422,1.906,1.422c0.197,0,0.375-0.062,0.531-0.188s0.234-0.255,0.234-0.391c0-0.156-0.104-0.417-0.312-0.781
			c-0.209-0.364-0.495-0.776-0.859-1.234c-0.417-0.531-0.764-0.919-1.039-1.164C9.302,17.372,9.08,17.25,8.914,17.25
			c-0.365,0-0.701,0.195-1.008,0.586c-0.308,0.391-0.461,0.852-0.461,1.383c0,0.427,0.106,0.904,0.32,1.43
			c0.213,0.526,0.523,1.055,0.93,1.586c0.614,0.823,1.377,1.456,2.289,1.898c0.911,0.443,1.919,0.664,3.023,0.664
			c2.031,0,3.731-0.758,5.102-2.273c1.369-1.516,2.055-3.414,2.055-5.695c0-0.698-0.053-1.252-0.156-1.664
			c-0.104-0.411-0.276-0.711-0.516-0.898c-0.428-0.354-1.258-0.672-2.492-0.953s-2.523-0.422-3.867-0.422
			c-0.375,0-0.641,0.062-0.797,0.188s-0.234,0.339-0.234,0.641c0,0.708,0.396,1.222,1.188,1.539
			c0.791,0.318,2.072,0.477,3.844,0.477h0.641c0.146,0,0.263,0.055,0.352,0.164c0.088,0.109,0.148,0.273,0.18,0.492
			c-0.178,0.167-0.542,0.357-1.094,0.57c-0.553,0.214-0.975,0.425-1.266,0.633c-0.625,0.458-1.128,1.003-1.508,1.633
			c-0.381,0.63-0.57,1.227-0.57,1.789c0,0.344,0.08,0.758,0.242,1.242c0.161,0.484,0.242,0.784,0.242,0.898v0.109l-0.031,0.141
			c-0.459-0.031-0.82-0.299-1.086-0.805c-0.266-0.505-0.398-1.18-0.398-2.023v-0.141c-0.084,0.073-0.164,0.125-0.242,0.156
			s-0.164,0.047-0.258,0.047s-0.183-0.008-0.266-0.023c-0.084-0.016-0.178-0.039-0.281-0.07c0.031,0.115,0.055,0.227,0.07,0.336
			s0.023,0.195,0.023,0.258c0,0.386-0.151,0.716-0.453,0.992c-0.303,0.276-0.662,0.414-1.078,0.414c-0.656,0-1.323-0.32-2-0.961
			c-0.678-0.641-1.016-1.268-1.016-1.883c0-0.114,0.013-0.216,0.039-0.305C8.4,19.31,8.445,19.234,8.508,19.171z M13.195,19.546
			c0.177,0,0.338-0.081,0.484-0.242c0.146-0.161,0.219-0.336,0.219-0.523c0-0.198-0.144-0.659-0.43-1.383
			c-0.287-0.724-0.644-1.435-1.07-2.133c-0.312-0.521-0.62-0.914-0.922-1.18c-0.303-0.266-0.589-0.398-0.859-0.398
			c-0.219,0-0.461,0.138-0.727,0.414c-0.266,0.276-0.398,0.534-0.398,0.773c0,0.25,0.13,0.625,0.391,1.125
			c0.26,0.5,0.609,1.031,1.047,1.594c0.458,0.615,0.891,1.094,1.297,1.438S12.955,19.546,13.195,19.546z M14.727,12l-1.688-4.875
			c-0.438-1.239-0.776-2.049-1.016-2.43c-0.24-0.38-0.5-0.57-0.781-0.57c-0.219,0-0.396,0.083-0.531,0.25
			c-0.136,0.167-0.203,0.391-0.203,0.672c0,0.479,0.182,1.312,0.547,2.5c0.364,1.188,0.911,2.745,1.641,4.672
			c0.062-0.114,0.15-0.195,0.266-0.242c0.114-0.047,0.271-0.07,0.469-0.07c0.062,0,0.188,0.005,0.375,0.016
			C13.992,11.932,14.299,11.958,14.727,12z M16.492,16.734c-0.448-0.021-0.873-0.067-1.273-0.141
			c-0.401-0.073-0.784-0.177-1.148-0.312c0.166,0.333,0.314,0.667,0.445,1c0.13,0.333,0.236,0.662,0.32,0.984
			c0.25-0.312,0.513-0.596,0.789-0.852C15.9,17.159,16.189,16.932,16.492,16.734z M18.57,12.531
			c0.697-1.896,1.242-3.461,1.633-4.695s0.586-1.992,0.586-2.273c0-0.302-0.065-0.536-0.195-0.703
			c-0.131-0.167-0.311-0.25-0.539-0.25c-0.292,0-0.589,0.242-0.891,0.727c-0.303,0.484-0.636,1.263-1,2.336l-1.562,4.516
			L18.57,12.531z"/>
	</g>
	<g>
		<path d="M48.35,3.303l6.048,22.848h-4.8l-1.056-4.832h-6.08l-1.056,4.832h-4.8l6.048-22.848H48.35z M47.742,17.543L45.534,7.271
			H45.47l-2.208,10.272H47.742z"/>
		<path d="M65.166,7.383c-0.395-0.757-1.115-1.136-2.16-1.136c-0.576,0-1.051,0.155-1.424,0.464c-0.374,0.31-0.667,0.811-0.88,1.504
			c-0.214,0.693-0.363,1.6-0.448,2.72c-0.085,1.12-0.128,2.491-0.128,4.112c0,1.728,0.059,3.125,0.176,4.192
			c0.117,1.067,0.299,1.894,0.544,2.48c0.245,0.587,0.554,0.981,0.928,1.184c0.373,0.203,0.805,0.304,1.296,0.304
			c0.405,0,0.784-0.069,1.136-0.208s0.656-0.416,0.912-0.832c0.256-0.416,0.458-1.002,0.608-1.76
			c0.149-0.757,0.224-1.754,0.224-2.992h4.608c0,1.237-0.096,2.411-0.288,3.52s-0.55,2.08-1.072,2.912
			c-0.523,0.832-1.259,1.483-2.208,1.952c-0.949,0.469-2.181,0.704-3.696,0.704c-1.728,0-3.104-0.277-4.128-0.832
			s-1.808-1.354-2.352-2.4c-0.544-1.045-0.896-2.293-1.056-3.744c-0.16-1.451-0.24-3.05-0.24-4.8c0-1.728,0.08-3.323,0.24-4.784
			c0.16-1.461,0.512-2.714,1.056-3.76s1.328-1.861,2.352-2.448c1.024-0.586,2.4-0.88,4.128-0.88c1.643,0,2.938,0.267,3.888,0.8
			c0.949,0.534,1.658,1.211,2.128,2.032c0.469,0.821,0.762,1.707,0.88,2.656c0.117,0.95,0.176,1.84,0.176,2.672h-4.608
			C65.758,9.352,65.561,8.141,65.166,7.383z"/>
		<path d="M82.35,7.383c-0.395-0.757-1.115-1.136-2.16-1.136c-0.576,0-1.051,0.155-1.424,0.464c-0.374,0.31-0.667,0.811-0.88,1.504
			c-0.214,0.693-0.363,1.6-0.448,2.72c-0.085,1.12-0.128,2.491-0.128,4.112c0,1.728,0.059,3.125,0.176,4.192
			c0.117,1.067,0.299,1.894,0.544,2.48c0.245,0.587,0.554,0.981,0.928,1.184c0.373,0.203,0.805,0.304,1.296,0.304
			c0.405,0,0.784-0.069,1.136-0.208s0.656-0.416,0.912-0.832c0.256-0.416,0.458-1.002,0.608-1.76
			c0.149-0.757,0.224-1.754,0.224-2.992h4.608c0,1.237-0.096,2.411-0.288,3.52s-0.55,2.08-1.072,2.912
			c-0.523,0.832-1.259,1.483-2.208,1.952c-0.949,0.469-2.181,0.704-3.696,0.704c-1.728,0-3.104-0.277-4.128-0.832
			s-1.808-1.354-2.352-2.4c-0.544-1.045-0.896-2.293-1.056-3.744c-0.16-1.451-0.24-3.05-0.24-4.8c0-1.728,0.08-3.323,0.24-4.784
			c0.16-1.461,0.512-2.714,1.056-3.76s1.328-1.861,2.352-2.448c1.024-0.586,2.4-0.88,4.128-0.88c1.643,0,2.938,0.267,3.888,0.8
			c0.949,0.534,1.658,1.211,2.128,2.032c0.469,0.821,0.762,1.707,0.88,2.656c0.117,0.95,0.176,1.84,0.176,2.672h-4.608
			C82.941,9.352,82.744,8.141,82.35,7.383z"/>
		<path d="M90.365,3.303h4.608v19.072h8.16v3.776H90.365V3.303z"/>
		<path d="M115.325,3.303l6.048,22.848h-4.8l-1.056-4.832h-6.08l-1.056,4.832h-4.8l6.048-22.848H115.325z M114.717,17.543
			l-2.208-10.272h-0.064l-2.208,10.272H114.717z"/>
		<path d="M123.197,3.303h4.608v22.848h-4.608V3.303z"/>
		<path d="M138.173,3.303l3.264,16.128h0.064l3.296-16.128h6.816v22.848h-4.224V7.911h-0.064l-4.064,18.24h-3.584l-4.064-18.24
			h-0.064v18.24h-4.224V3.303H138.173z"/>
	</g>
</g>
</svg>
