<?xml version="1.0" encoding="utf-8"?>
<!-- Generator: Adobe Illustrator 16.0.4, SVG Export Plug-In . SVG Version: 6.00 Build 0)  -->
<!DOCTYPE svg PUBLIC "-//W3C//DTD SVG 1.1//EN" "http://www.w3.org/Graphics/SVG/1.1/DTD/svg11.dtd">
<svg version="1.1" id="Layer_1" xmlns="http://www.w3.org/2000/svg" xmlns:xlink="http://www.w3.org/1999/xlink" x="0px" y="0px"
	 width="124.722px" height="30.303px" viewBox="0 0 124.722 30.303" enable-background="new 0 0 124.722 30.303"
	 xml:space="preserve">
<g>
	<circle fill="#808080" cx="15.151" cy="15.151" r="15.151"/>
	<g>
		<path fill="#FFFFFF" d="M16.275,15.815l4.066,4.458c0.73-0.573,1.226-1.154,1.486-1.74h1.35c-0.249,1.147-0.829,2.079-1.741,2.797
			l2.287,2.657c0.613,0.027,0.925,0.354,0.938,0.978c-0.052,0.418-0.225,0.708-0.518,0.871c-0.292,0.163-0.649,0.251-1.066,0.266
			c-0.703-0.042-1.075-0.444-1.114-1.214l-2.288-2.464c-1.016,0.547-1.967,0.86-2.854,0.938l-0.566-0.977
			c0.99-0.157,1.812-0.476,2.463-0.957l-3.578-4.263l-3.559,4.263c0.652,0.481,1.473,0.8,2.465,0.957l-0.567,0.977
			c-0.9-0.077-1.859-0.391-2.875-0.938L8.32,24.888c-0.015,0.703-0.326,1.106-0.939,1.214c-0.39,0-0.769-0.073-1.133-0.218
			C5.882,25.74,5.68,25.492,5.64,25.141c0-0.741,0.312-1.126,0.938-1.153l2.289-2.657c-0.914-0.718-1.494-1.649-1.741-2.797h1.329
			c0.273,0.586,0.775,1.167,1.505,1.74l4.087-4.458L6.11,6.374l-0.47-2.17l9.501,10.4l9.521-10.4l-0.489,2.17L16.275,15.815z
			 M5.757,25.122l0.119,0.116c0.196-0.624,0.533-1.004,1.016-1.133C6.162,23.987,5.784,24.326,5.757,25.122z M15.826,16.324v0.02
			l-0.469-0.528l8.701-10.322l0.078-0.215l-8.994,10.283L6.167,5.278l0.06,0.215l8.738,10.244l-4.672,5.26
			c-0.859-0.561-1.532-1.297-2.013-2.21l-0.333-0.019c0.403,0.742,1,1.44,1.789,2.092c0.789,0.651,2.051,1.296,3.784,1.935
			l0.117-0.234c-1.199-0.365-2.222-0.813-3.068-1.348l4.574-5.24l0.528,0.586h-0.021l3.989,4.693
			c-0.835,0.52-1.832,0.957-2.992,1.309l0.137,0.234c1.72-0.639,2.975-1.283,3.764-1.935c0.788-0.651,1.385-1.35,1.789-2.092
			l-0.313,0.019c-0.469,0.875-1.16,1.631-2.072,2.269L15.826,16.324z M23.392,25.865c-0.469-0.13-0.802-0.509-0.998-1.135
			l-0.136,0.117C22.297,25.643,22.674,25.982,23.392,25.865z"/>
	</g>
</g>
<g>
	<g>
		<path d="M50.385,3.062l5.568,22.848h-6.336l-0.607-4h-4.736l-0.607,4h-6.24l5.473-22.848H50.385z M46.61,7.735l-1.631,9.696h3.326
			l-1.631-9.696H46.61z"/>
		<path d="M66.257,3.062c1.131,0,2.097,0.149,2.896,0.448s1.45,0.72,1.952,1.264c0.501,0.544,0.863,1.19,1.088,1.936
			c0.224,0.747,0.336,1.558,0.336,2.432c0,1.536-0.31,2.773-0.928,3.712c-0.619,0.939-1.611,1.515-2.977,1.728v0.064
			c1.429,0.128,2.41,0.63,2.944,1.504c0.533,0.875,0.8,2.08,0.8,3.616v1.952c0,0.299,0,0.607,0,0.928s0.011,0.624,0.032,0.912
			c0.021,0.288,0.053,0.549,0.096,0.784s0.096,0.416,0.16,0.544c0.085,0.128,0.17,0.251,0.256,0.368
			c0.085,0.117,0.224,0.229,0.416,0.336v0.319h-6.336c-0.149-0.298-0.262-0.65-0.336-1.056c-0.075-0.405-0.128-0.811-0.16-1.216
			c-0.032-0.404-0.054-0.795-0.063-1.168c-0.012-0.373-0.017-0.678-0.017-0.912v-1.536c0-0.64-0.032-1.173-0.096-1.6
			c-0.064-0.427-0.176-0.763-0.336-1.009c-0.16-0.244-0.363-0.416-0.608-0.512s-0.55-0.144-0.912-0.144h-1.567v9.151h-5.952V3.062
			H66.257z M64.082,12.727c0.854,0,1.482-0.25,1.888-0.752c0.405-0.501,0.608-1.157,0.608-1.968c0-0.96-0.197-1.643-0.592-2.048
			c-0.396-0.405-1.04-0.608-1.937-0.608h-1.151v5.376H64.082z"/>
		<path d="M90.673,13.495V25.91h-4.031l-0.128-2.016H86.45c-0.192,0.491-0.464,0.896-0.816,1.217
			c-0.352,0.319-0.746,0.559-1.184,0.719s-0.907,0.272-1.408,0.336c-0.501,0.064-1.008,0.097-1.52,0.097
			c-1.516,0-2.71-0.251-3.584-0.752c-0.875-0.501-1.536-1.253-1.984-2.256s-0.73-2.24-0.848-3.712
			c-0.118-1.473-0.176-3.157-0.176-5.056c0-1.92,0.111-3.616,0.336-5.088c0.224-1.472,0.65-2.709,1.279-3.712
			c0.629-1.002,1.499-1.765,2.608-2.288c1.109-0.522,2.538-0.784,4.288-0.784c1.045,0,2.011,0.139,2.896,0.416
			c0.886,0.277,1.648,0.726,2.288,1.344c0.641,0.619,1.142,1.414,1.504,2.384c0.363,0.971,0.544,2.149,0.544,3.536h-5.76
			c0-1.216-0.106-2.101-0.319-2.656c-0.214-0.661-0.673-0.992-1.377-0.992c-0.49,0-0.88,0.118-1.168,0.352
			c-0.287,0.235-0.501,0.651-0.64,1.248c-0.139,0.598-0.229,1.403-0.271,2.416c-0.043,1.014-0.064,2.288-0.064,3.824
			c0,1.536,0.021,2.811,0.064,3.824c0.042,1.014,0.133,1.819,0.271,2.416c0.139,0.598,0.341,1.014,0.608,1.248
			c0.267,0.234,0.624,0.352,1.071,0.352c0.32,0,0.603-0.063,0.849-0.191c0.245-0.128,0.453-0.368,0.624-0.721
			c0.17-0.352,0.304-0.842,0.399-1.471c0.097-0.63,0.145-1.436,0.145-2.416h-2.112v-4.033H90.673z"/>
		<path d="M98.801,19.543c0,1.109,0.16,1.851,0.48,2.224c0.32,0.374,0.757,0.56,1.312,0.56c0.554,0,0.991-0.186,1.312-0.56
			c0.32-0.373,0.48-1.114,0.48-2.224V3.062h5.951v14.977c0,1.6-0.171,2.934-0.512,4c-0.342,1.066-0.838,1.92-1.488,2.56
			s-1.456,1.077-2.416,1.312s-2.069,0.353-3.327,0.353c-1.238,0-2.342-0.118-3.312-0.353s-1.781-0.672-2.432-1.312
			c-0.651-0.64-1.147-1.493-1.488-2.56c-0.342-1.066-0.512-2.4-0.512-4V3.062h5.951V19.543z"/>
		<path d="M124.434,3.062v4.864h-7.584v3.904h7.104v4.671h-7.104v4.545h7.872v4.863h-13.824V3.062H124.434z"/>
	</g>
</g>
</svg>
