<?xml version="1.0" encoding="utf-8"?>
<!-- Generator: Adobe Illustrator 16.0.4, SVG Export Plug-In . SVG Version: 6.00 Build 0)  -->
<!DOCTYPE svg PUBLIC "-//W3C//DTD SVG 1.1//EN" "http://www.w3.org/Graphics/SVG/1.1/DTD/svg11.dtd">
<svg version="1.1" id="Layer_1" xmlns="http://www.w3.org/2000/svg" xmlns:xlink="http://www.w3.org/1999/xlink" x="0px" y="0px"
	 width="331.619px" height="271.336px" viewBox="0 0 331.619 271.336" enable-background="new 0 0 331.619 271.336"
	 xml:space="preserve">
<text transform="matrix(1 0 0 1 82.3887 18.874)"><tspan x="0" y="0" font-family="'Arial-BoldMT'" font-size="22">Write a failing </tspan><tspan x="31.174" y="26.4" font-family="'Arial-BoldMT'" font-size="22">UnitTest</tspan></text>
<text transform="matrix(1 0 0 1 200.7788 202.3882)" font-family="'Arial-BoldMT'" font-size="22">Make it pass</text>
<text transform="matrix(1 0 0 1 0 202.3882)" font-family="'Arial-BoldMT'" font-size="22">Refactor</text>
<g>
	<path fill="#FFFFFF" d="M155.686,11.109"/>
	<path fill="none" stroke="#000000" stroke-miterlimit="10" d="M155.686,11.109"/>
</g>
<g>
	<path fill="#FFFFFF" d="M35.773,171.245c-9.022-32.262-5.251-68.028,13.378-99.003C60.291,53.72,75.434,39.088,92.808,28.788"/>
	<g>
		<g>
			<path fill="#A6A6A6" d="M43.413,169.108c0,0-0.545-2.175-1.5-5.98c-0.764-3.843-1.957-9.341-2.45-16.056
				c-0.554-6.699-0.621-14.577,0.31-22.931c0.921-8.348,2.809-17.162,5.775-25.623c2.96-8.459,6.911-16.569,11.378-23.698
				c4.364-7.207,9.392-13.283,13.939-18.217c1.157-1.218,2.266-2.386,3.321-3.496c1.123-1.042,2.187-2.03,3.188-2.958
				c0.592-0.552,1.109-1.033,1.535-1.429c0.43-0.4,0.679-0.624,0.679-0.625l3.43,3.937c2.289-7.715,5.534-15.532,9.791-23.243
				c-8.728,0.167-17.818,1.255-27.074,3.41l3.43,3.936c0,0-0.284,0.254-0.772,0.707c-0.484,0.449-1.072,0.994-1.746,1.619
				c-1.134,1.056-2.341,2.18-3.613,3.365c-1.199,1.259-2.459,2.583-3.775,3.963c-5.166,5.596-10.856,12.505-15.803,20.653
				c-5.052,8.067-9.533,17.258-12.89,26.863c-3.365,9.604-5.515,19.613-6.559,29.088c-1.057,9.48-0.982,18.417-0.351,26.012
				c0.569,7.612,1.901,13.846,2.779,18.199c1.082,4.313,1.7,6.778,1.7,6.778L43.413,169.108z"/>
		</g>
	</g>
</g>
<g>
	<path fill="#FFFFFF" d="M250.039,222.727c-39.703,43.194-105.569,54.035-157.806,22.618c-11.361-6.833-21.259-15.172-29.591-24.609
		"/>
	<g>
		<g>
			<path fill="#A6A6A6" d="M244.199,217.359c0,0-0.517,0.537-1.484,1.543c-0.483,0.504-1.08,1.126-1.78,1.856
				c-0.706,0.726-1.569,1.508-2.505,2.414c-3.779,3.581-9.455,8.451-16.953,13.329c-3.783,2.373-7.938,4.882-12.576,7.064
				c-4.615,2.22-9.618,4.287-14.927,6.043c-10.636,3.444-22.487,5.584-34.414,5.837c-11.928,0.256-23.844-1.43-34.595-4.449
				c-5.367-1.555-10.438-3.435-15.139-5.467c-1.164-0.535-2.312-1.062-3.442-1.582c-1.139-0.503-2.205-1.114-3.284-1.65
				c-2.167-1.06-4.162-2.271-6.111-3.369c-1.92-1.147-3.675-2.386-5.393-3.482c-0.854-0.558-1.686-1.102-2.494-1.629
				c-0.822-0.511-1.52-1.144-2.252-1.681c-0.764-0.59-1.431-1.104-1.979-1.528c-0.465-0.358-0.731-0.563-0.731-0.563l3.226-4.105
				c-4.134-0.25-8.048-1.064-12.253-1.846c-2.134-0.359-4.105-0.957-6.179-1.522c-2.062-0.576-4.16-1.187-6.29-1.836
				c0.487,2.1,1.007,4.236,1.563,6.409c0.567,2.16,1.103,4.425,1.877,6.515c1.483,4.242,2.982,8.78,5.027,12.965l3.226-4.104
				c0,0,0.301,0.232,0.829,0.639c0.623,0.48,1.379,1.062,2.247,1.731c0.829,0.609,1.63,1.316,2.556,1.899
				c0.914,0.601,1.854,1.218,2.819,1.852c1.942,1.247,3.937,2.637,6.111,3.935c2.204,1.249,4.465,2.61,6.918,3.817
				c1.222,0.609,2.433,1.293,3.723,1.868c1.282,0.589,2.583,1.188,3.903,1.794c5.331,2.309,11.087,4.44,17.181,6.202
				c12.205,3.436,25.736,5.342,39.263,5.051c13.525-0.284,26.957-2.707,39.009-6.617c6.019-1.986,11.69-4.328,16.925-6.848
				c5.256-2.482,9.977-5.315,14.266-8.016c8.512-5.531,14.955-11.064,19.246-15.13c1.064-1.027,2.04-1.92,2.842-2.742
				c0.797-0.829,1.474-1.533,2.023-2.105c1.097-1.144,1.682-1.754,1.682-1.754L244.199,217.359z"/>
		</g>
	</g>
</g>
<g>
	<path fill="#FFFFFF" d="M225.119,30.935c48.161,30.713,68.666,89.076,53.216,141.75"/>
	<g>
		<g>
			<path fill="#A6A6A6" d="M220.854,37.623c0,0,0.457,0.306,1.315,0.88c0.846,0.591,2.145,1.376,3.695,2.519
				c3.146,2.221,7.509,5.594,12.331,10.099c4.804,4.516,10.06,10.189,14.872,16.893c1.182,1.69,2.412,3.388,3.529,5.195
				c1.181,1.765,2.244,3.632,3.345,5.498c2.1,3.786,4.144,7.692,5.837,11.758l0.662,1.512l0.599,1.537
				c0.396,1.026,0.812,2.043,1.19,3.071c0.704,2.076,1.471,4.123,2.06,6.21c1.3,4.136,2.257,8.3,3.059,12.347
				c1.527,8.114,2.129,15.826,2.117,22.426c-0.035,1.649-0.069,3.23-0.102,4.734c-0.093,1.501-0.182,2.925-0.265,4.263
				c-0.016,0.335-0.043,0.663-0.081,0.985c-0.012,0.109-0.022,0.217-0.033,0.322c-0.01,0.095-0.02,0.187-0.028,0.274
				c-0.019,0.176-0.035,0.338-0.05,0.483c-0.061,0.585-0.095,0.918-0.095,0.918l-5.193-0.539c3.66,7.21,6.631,15.152,8.715,23.677
				c6.33-6.054,12.225-13.07,17.451-20.959l-5.192-0.54c0,0,0.038-0.378,0.106-1.041c0.017-0.166,0.035-0.35,0.056-0.549
				c0.011-0.101,0.021-0.204,0.032-0.312c0.012-0.12,0.024-0.242,0.037-0.366c0.042-0.365,0.073-0.738,0.092-1.118
				c0.094-1.519,0.193-3.134,0.299-4.837c0.037-1.706,0.075-3.499,0.116-5.371c0.013-7.485-0.664-16.229-2.399-25.426
				c-0.904-4.588-1.997-9.304-3.465-13.992c-0.673-2.363-1.532-4.687-2.337-7.038c-0.429-1.167-0.897-2.32-1.347-3.483l-0.683-1.741
				l-0.747-1.716c-1.926-4.606-4.233-9.042-6.621-13.333c-1.244-2.119-2.458-4.234-3.794-6.239
				c-1.271-2.047-2.661-3.979-4.007-5.895c-5.464-7.608-11.428-14.055-16.882-19.179c-5.474-5.115-10.425-8.936-13.988-11.454
				c-1.76-1.292-3.225-2.188-4.186-2.854c-0.973-0.648-1.491-0.994-1.491-0.994L220.854,37.623z"/>
		</g>
	</g>
</g>
</svg>
