<?xml version="1.0" encoding="utf-8"?>
<!-- Generator: Adobe Illustrator 16.0.4, SVG Export Plug-In . SVG Version: 6.00 Build 0)  -->
<!DOCTYPE svg PUBLIC "-//W3C//DTD SVG 1.1//EN" "http://www.w3.org/Graphics/SVG/1.1/DTD/svg11.dtd">
<svg version="1.1" id="Layer_6" xmlns="http://www.w3.org/2000/svg" xmlns:xlink="http://www.w3.org/1999/xlink" x="0px" y="0px"
	 width="172.434px" height="30.303px" viewBox="0 0 172.434 30.303" enable-background="new 0 0 172.434 30.303"
	 xml:space="preserve">
<g>
	<circle fill="#0071BC" cx="15.151" cy="15.151" r="15.151"/>
</g>
<g>
	<path fill="#FFFFFF" d="M19.444,20.895v1.758c0,0.238-0.088,0.445-0.26,0.618c-0.176,0.174-0.38,0.261-0.617,0.261h-7.036
		c-0.237,0-0.444-0.087-0.617-0.261c-0.174-0.173-0.261-0.38-0.261-0.618v-1.758c0-0.238,0.087-0.444,0.261-0.618
		c0.173-0.174,0.38-0.261,0.617-0.261h0.879v-5.275h-0.879c-0.237,0-0.444-0.087-0.617-0.262c-0.174-0.173-0.261-0.379-0.261-0.618
		v-1.758c0-0.239,0.087-0.445,0.261-0.618c0.173-0.174,0.38-0.262,0.617-0.262h5.277c0.236,0,0.445,0.087,0.617,0.262
		c0.172,0.173,0.26,0.379,0.26,0.618v7.912h0.881c0.237,0,0.441,0.087,0.617,0.261C19.356,20.451,19.444,20.657,19.444,20.895z
		 M17.686,5.069v2.638c0,0.238-0.088,0.445-0.26,0.618c-0.172,0.174-0.381,0.261-0.617,0.261H13.29
		c-0.236,0-0.445-0.087-0.617-0.261c-0.176-0.173-0.263-0.379-0.263-0.618V5.069c0-0.238,0.086-0.444,0.263-0.618
		c0.172-0.174,0.38-0.261,0.617-0.261h3.518c0.236,0,0.445,0.087,0.617,0.261C17.597,4.625,17.686,4.831,17.686,5.069z"/>
</g>
<g>
	<path d="M45.385,3.303c1.92,0,3.413,0.486,4.48,1.456c1.067,0.971,1.6,2.448,1.6,4.432c0,1.536-0.31,2.79-0.928,3.76
		c-0.619,0.971-1.579,1.595-2.88,1.872v0.064c1.152,0.171,1.995,0.544,2.528,1.12c0.533,0.576,0.864,1.504,0.992,2.784
		c0.042,0.427,0.075,0.891,0.096,1.392c0.021,0.501,0.042,1.061,0.064,1.68c0.042,1.216,0.106,2.144,0.192,2.784
		c0.128,0.64,0.405,1.078,0.832,1.312v0.192h-4.992c-0.235-0.32-0.384-0.688-0.448-1.104s-0.107-0.848-0.128-1.296l-0.128-4.384
		c-0.043-0.896-0.267-1.6-0.672-2.112c-0.406-0.512-1.088-0.768-2.048-0.768h-2.464v9.664h-4.608V3.303H45.385z M43.401,13.288
		c1.109,0,1.962-0.261,2.56-0.784c0.597-0.522,0.896-1.402,0.896-2.64c0-2.112-1.067-3.168-3.2-3.168h-2.176v6.592H43.401z"/>
	<path d="M67.433,7.08h-8.16v5.376h7.68v3.776h-7.68v6.144h8.48v3.776H54.665V3.303h12.768V7.08z"/>
	<path d="M82.825,3.303V7.08h-8.16v5.376h7.68v3.776h-7.68v9.92h-4.608V3.303H82.825z"/>
</g>
</svg>
