<?xml version="1.0" encoding="utf-8"?>
<!-- Generator: Adobe Illustrator 16.0.4, SVG Export Plug-In . SVG Version: 6.00 Build 0)  -->
<!DOCTYPE svg PUBLIC "-//W3C//DTD SVG 1.1//EN" "http://www.w3.org/Graphics/SVG/1.1/DTD/svg11.dtd">
<svg version="1.1" xmlns="http://www.w3.org/2000/svg" xmlns:xlink="http://www.w3.org/1999/xlink" x="0px" y="0px"
	 width="172.434px" height="30.303px" viewBox="0 0 172.434 30.303" enable-background="new 0 0 172.434 30.303"
	 xml:space="preserve">
<g id="Layer_4" display="none">
	<g display="inline">
		<g>
			<path d="M49.235,3.363c1.13,0,2.096,0.149,2.896,0.448c0.8,0.299,1.45,0.72,1.952,1.264c0.501,0.544,0.864,1.19,1.088,1.936
				c0.224,0.747,0.336,1.558,0.336,2.432c0,1.536-0.31,2.773-0.928,3.712c-0.619,0.939-1.611,1.515-2.976,1.728v0.064
				c1.429,0.128,2.411,0.63,2.944,1.504c0.533,0.875,0.8,2.08,0.8,3.616v1.952c0,0.299,0,0.608,0,0.928
				c0,0.32,0.01,0.624,0.032,0.912c0.021,0.288,0.053,0.549,0.096,0.784c0.042,0.235,0.096,0.416,0.16,0.544
				c0.085,0.128,0.17,0.251,0.256,0.368c0.085,0.117,0.224,0.229,0.416,0.336v0.32h-6.336c-0.149-0.298-0.262-0.65-0.336-1.056
				c-0.075-0.405-0.128-0.811-0.16-1.216c-0.032-0.405-0.053-0.794-0.064-1.168c-0.011-0.373-0.016-0.677-0.016-0.912v-1.536
				c0-0.64-0.032-1.173-0.096-1.6s-0.176-0.763-0.336-1.008c-0.16-0.245-0.363-0.416-0.608-0.512
				c-0.245-0.096-0.549-0.144-0.912-0.144h-1.568v9.152h-5.952V3.363H49.235z M47.059,13.027c0.853,0,1.482-0.25,1.888-0.752
				c0.405-0.501,0.608-1.157,0.608-1.968c0-0.96-0.198-1.643-0.592-2.048c-0.395-0.405-1.04-0.608-1.936-0.608h-1.152v5.376H47.059z
				"/>
			<path d="M71.827,3.363v4.864h-7.584v3.904h7.104v4.672h-7.104v4.544h7.872v4.864H58.291V3.363H71.827z"/>
			<path d="M87.827,3.363v4.864h-7.584v3.904h7.104v4.672h-7.104v9.408h-5.952V3.363H87.827z"/>
			<path d="M99.731,3.363l5.568,22.848h-6.336l-0.608-4h-4.736l-0.608,4h-6.24l5.472-22.848H99.731z M95.955,8.036l-1.632,9.696
				h3.328l-1.632-9.696H95.955z"/>
			<path d="M115.027,7.651c-0.256-0.469-0.672-0.704-1.248-0.704c-0.448,0-0.806,0.118-1.072,0.352
				c-0.267,0.235-0.47,0.651-0.608,1.248c-0.139,0.598-0.229,1.403-0.272,2.416c-0.043,1.014-0.064,2.288-0.064,3.824
				c0,1.536,0.021,2.811,0.064,3.824c0.042,1.014,0.133,1.819,0.272,2.416c0.139,0.598,0.341,1.014,0.608,1.248
				c0.266,0.235,0.624,0.352,1.072,0.352c0.362,0,0.661-0.09,0.896-0.272c0.234-0.181,0.416-0.485,0.544-0.912
				c0.128-0.426,0.219-0.997,0.272-1.712c0.053-0.714,0.08-1.616,0.08-2.704h5.76v1.696c0,1.6-0.214,2.912-0.64,3.936
				c-0.427,1.024-0.992,1.829-1.696,2.416c-0.704,0.587-1.509,0.982-2.416,1.184c-0.907,0.203-1.84,0.304-2.8,0.304
				c-1.664,0-3.029-0.203-4.096-0.608c-1.067-0.405-1.899-1.083-2.496-2.032c-0.598-0.949-1.008-2.176-1.232-3.68
				c-0.224-1.504-0.336-3.323-0.336-5.456c0-2.176,0.133-4.021,0.4-5.536c0.266-1.515,0.72-2.741,1.36-3.68
				c0.64-0.938,1.482-1.616,2.528-2.032c1.045-0.416,2.336-0.624,3.872-0.624c1.344,0,2.485,0.171,3.424,0.512
				c0.938,0.342,1.701,0.827,2.288,1.456c0.586,0.629,1.013,1.387,1.28,2.272c0.266,0.886,0.4,1.883,0.4,2.992v1.44h-5.76v-1.28
				C115.411,9.006,115.283,8.121,115.027,7.651z"/>
			<path d="M122.066,8.419V3.363h14.848v5.056h-4.48v17.792h-5.952V8.419H122.066z"/>
			<path d="M138.002,9.332c0.277-1.504,0.736-2.73,1.376-3.68c0.64-0.949,1.483-1.643,2.528-2.08
				c1.045-0.437,2.325-0.656,3.84-0.656c1.515,0,2.794,0.219,3.84,0.656c1.045,0.438,1.888,1.131,2.528,2.08
				c0.64,0.95,1.098,2.176,1.376,3.68c0.277,1.504,0.416,3.323,0.416,5.456s-0.139,3.952-0.416,5.456
				c-0.278,1.504-0.736,2.731-1.376,3.68c-0.64,0.95-1.483,1.627-2.528,2.032c-1.045,0.405-2.325,0.608-3.84,0.608
				c-1.515,0-2.795-0.203-3.84-0.608c-1.045-0.405-1.888-1.083-2.528-2.032c-0.64-0.949-1.099-2.176-1.376-3.68
				c-0.277-1.504-0.416-3.323-0.416-5.456S137.725,10.835,138.002,9.332z M143.794,18.611c0.042,1.014,0.133,1.819,0.272,2.416
				c0.139,0.598,0.341,1.014,0.608,1.248c0.266,0.235,0.624,0.352,1.072,0.352c0.448,0,0.805-0.117,1.072-0.352
				c0.267-0.234,0.469-0.65,0.608-1.248c0.138-0.597,0.229-1.402,0.272-2.416c0.042-1.013,0.064-2.288,0.064-3.824
				c0-1.536-0.021-2.811-0.064-3.824c-0.043-1.013-0.134-1.818-0.272-2.416c-0.139-0.597-0.342-1.013-0.608-1.248
				c-0.267-0.234-0.624-0.352-1.072-0.352c-0.448,0-0.806,0.118-1.072,0.352c-0.267,0.235-0.47,0.651-0.608,1.248
				c-0.139,0.598-0.229,1.403-0.272,2.416c-0.043,1.014-0.064,2.288-0.064,3.824C143.73,16.323,143.751,17.599,143.794,18.611z"/>
			<path d="M165.362,3.363c1.13,0,2.096,0.149,2.896,0.448c0.8,0.299,1.45,0.72,1.952,1.264c0.501,0.544,0.864,1.19,1.088,1.936
				c0.224,0.747,0.336,1.558,0.336,2.432c0,1.536-0.31,2.773-0.928,3.712c-0.619,0.939-1.611,1.515-2.976,1.728v0.064
				c1.429,0.128,2.411,0.63,2.944,1.504c0.533,0.875,0.8,2.08,0.8,3.616v1.952c0,0.299,0,0.608,0,0.928
				c0,0.32,0.01,0.624,0.032,0.912c0.021,0.288,0.053,0.549,0.096,0.784c0.042,0.235,0.096,0.416,0.16,0.544
				c0.085,0.128,0.17,0.251,0.256,0.368c0.085,0.117,0.224,0.229,0.416,0.336v0.32h-6.336c-0.149-0.298-0.262-0.65-0.336-1.056
				c-0.075-0.405-0.128-0.811-0.16-1.216c-0.032-0.405-0.053-0.794-0.064-1.168c-0.011-0.373-0.016-0.677-0.016-0.912v-1.536
				c0-0.64-0.032-1.173-0.096-1.6s-0.176-0.763-0.336-1.008c-0.16-0.245-0.363-0.416-0.608-0.512
				c-0.245-0.096-0.549-0.144-0.912-0.144h-1.568v9.152h-5.952V3.363H165.362z M163.186,13.027c0.853,0,1.482-0.25,1.888-0.752
				c0.405-0.501,0.608-1.157,0.608-1.968c0-0.96-0.198-1.643-0.592-2.048c-0.395-0.405-1.04-0.608-1.936-0.608h-1.152v5.376H163.186
				z"/>
		</g>
		<g>
			<circle cx="15.151" cy="15.151" r="15.151"/>
			<g>
				<g>
					<polyline fill="none" stroke="#FFFFFF" stroke-width="2" stroke-miterlimit="10" points="19.606,21.575 8.606,21.575 
						8.606,11.575 					"/>
					<g>
						<polygon fill="#FFFFFF" points="15.836,17.575 19.229,21.075 15.836,24.575 18.715,24.575 22.106,21.075 18.715,17.575 						
							"/>
					</g>
				</g>
			</g>
			<g>
				<g>
					<polyline fill="none" stroke="#FFFFFF" stroke-width="2" stroke-miterlimit="10" points="10.606,9.575 21.606,9.575 
						21.606,17.575 					"/>
					<g>
						<polygon fill="#FFFFFF" points="14.921,12.575 11.528,9.075 14.921,5.575 12.042,5.575 8.651,9.075 12.042,12.575 						"/>
					</g>
				</g>
			</g>
		</g>
	</g>
</g>
<g id="Layer_3" display="none">
	<g display="inline">
		<circle fill="#00FF00" cx="15.151" cy="15.151" r="15.151"/>
		<g>
			<path d="M55.283,14.207v12.416h-4.032l-0.128-2.016h-0.064c-0.192,0.491-0.464,0.896-0.816,1.216s-0.747,0.56-1.184,0.72
				c-0.438,0.16-0.907,0.272-1.408,0.336c-0.502,0.064-1.008,0.097-1.52,0.097c-1.515,0-2.709-0.251-3.584-0.752
				c-0.875-0.501-1.536-1.253-1.984-2.256c-0.448-1.003-0.731-2.24-0.848-3.713c-0.118-1.472-0.176-3.156-0.176-5.056
				c0-1.92,0.112-3.616,0.336-5.088c0.224-1.472,0.651-2.709,1.28-3.712c0.629-1.003,1.499-1.765,2.608-2.288
				c1.109-0.522,2.539-0.784,4.288-0.784c1.045,0,2.01,0.139,2.896,0.416c0.885,0.277,1.648,0.726,2.288,1.344
				c0.64,0.619,1.141,1.414,1.504,2.385c0.362,0.971,0.544,2.149,0.544,3.535h-5.76c0-1.216-0.107-2.101-0.32-2.655
				c-0.213-0.661-0.672-0.992-1.376-0.992c-0.491,0-0.88,0.117-1.168,0.352c-0.288,0.235-0.501,0.651-0.64,1.248
				c-0.139,0.598-0.229,1.403-0.272,2.416c-0.043,1.014-0.064,2.288-0.064,3.824s0.021,2.812,0.064,3.824
				c0.042,1.014,0.133,1.819,0.272,2.416c0.139,0.598,0.341,1.014,0.608,1.248s0.624,0.352,1.072,0.352
				c0.32,0,0.603-0.063,0.848-0.191c0.245-0.128,0.453-0.368,0.624-0.721c0.171-0.352,0.304-0.842,0.4-1.472
				c0.096-0.629,0.144-1.435,0.144-2.416h-2.112v-4.032H55.283z"/>
			<path d="M67.027,3.775c1.13,0,2.096,0.149,2.896,0.448c0.8,0.299,1.45,0.72,1.952,1.264c0.501,0.544,0.864,1.189,1.088,1.936
				c0.224,0.747,0.336,1.558,0.336,2.433c0,1.536-0.31,2.773-0.928,3.712c-0.619,0.938-1.611,1.515-2.976,1.728v0.064
				c1.429,0.128,2.411,0.63,2.944,1.504c0.533,0.875,0.8,2.08,0.8,3.616v1.952c0,0.299,0,0.607,0,0.928s0.01,0.624,0.032,0.912
				c0.021,0.288,0.053,0.549,0.096,0.784c0.042,0.234,0.096,0.416,0.16,0.544c0.085,0.128,0.17,0.251,0.256,0.368
				c0.085,0.117,0.224,0.229,0.416,0.336v0.319h-6.336c-0.149-0.298-0.262-0.65-0.336-1.056c-0.075-0.405-0.128-0.811-0.16-1.216
				c-0.032-0.405-0.053-0.795-0.064-1.168c-0.011-0.373-0.016-0.678-0.016-0.912v-1.536c0-0.64-0.032-1.173-0.096-1.6
				s-0.176-0.763-0.336-1.009c-0.16-0.245-0.363-0.416-0.608-0.512s-0.549-0.144-0.912-0.144h-1.568v9.151h-5.952V3.775H67.027z
				 M64.851,13.439c0.853,0,1.482-0.251,1.888-0.752c0.405-0.501,0.608-1.157,0.608-1.968c0-0.96-0.198-1.643-0.592-2.049
				c-0.395-0.404-1.04-0.607-1.936-0.607h-1.152v5.376H64.851z"/>
			<path d="M89.619,3.775V8.64h-7.584v3.903h7.104v4.672h-7.104v4.545h7.872v4.863H76.083V3.775H89.619z"/>
			<path d="M105.619,3.775V8.64h-7.584v3.903h7.104v4.672h-7.104v4.545h7.872v4.863H92.083V3.775H105.619z"/>
			<path d="M114.739,3.775l3.84,14.08h0.064V3.775h5.568v22.848h-6.528l-3.968-14.111h-0.064v14.111h-5.568V3.775H114.739z"/>
		</g>
	</g>
</g>
<g id="Layer_1" display="none">
	<g display="inline">
		<circle fill="#FF0000" cx="15.151" cy="15.151" r="15.151"/>
		<g>
			<path d="M49.235,3.728c1.13,0,2.096,0.149,2.896,0.448c0.8,0.299,1.45,0.72,1.952,1.264c0.501,0.544,0.864,1.189,1.088,1.936
				c0.224,0.747,0.336,1.558,0.336,2.433c0,1.536-0.31,2.773-0.928,3.712c-0.619,0.938-1.611,1.515-2.976,1.728v0.064
				c1.429,0.128,2.411,0.63,2.944,1.504c0.533,0.875,0.8,2.08,0.8,3.616v1.952c0,0.299,0,0.607,0,0.928s0.01,0.624,0.032,0.912
				c0.021,0.288,0.053,0.549,0.096,0.784c0.042,0.234,0.096,0.416,0.16,0.544c0.085,0.128,0.17,0.251,0.256,0.368
				c0.085,0.117,0.224,0.229,0.416,0.336v0.319h-6.336c-0.149-0.298-0.262-0.65-0.336-1.056c-0.075-0.405-0.128-0.811-0.16-1.216
				c-0.032-0.405-0.053-0.795-0.064-1.168c-0.011-0.373-0.016-0.678-0.016-0.912v-1.536c0-0.64-0.032-1.173-0.096-1.6
				s-0.176-0.763-0.336-1.009c-0.16-0.245-0.363-0.416-0.608-0.512s-0.549-0.144-0.912-0.144h-1.568v9.151h-5.952V3.728H49.235z
				 M47.059,13.392c0.853,0,1.482-0.251,1.888-0.752c0.405-0.501,0.608-1.157,0.608-1.968c0-0.96-0.198-1.643-0.592-2.049
				c-0.395-0.404-1.04-0.607-1.936-0.607h-1.152v5.376H47.059z"/>
			<path d="M71.827,3.728v4.864h-7.584v3.903h7.104v4.672h-7.104v4.545h7.872v4.863H58.291V3.728H71.827z"/>
			<path d="M82.931,3.728c1.728,0,3.072,0.314,4.032,0.944c0.96,0.629,1.68,1.472,2.16,2.527c0.48,1.057,0.773,2.272,0.88,3.648
				c0.106,1.376,0.16,2.811,0.16,4.304s-0.053,2.928-0.16,4.304c-0.107,1.376-0.4,2.593-0.88,3.648
				c-0.48,1.056-1.2,1.898-2.16,2.528c-0.96,0.629-2.304,0.943-4.032,0.943h-8.64V3.728H82.931z M81.427,22.287
				c0.576,0,1.035-0.08,1.376-0.239c0.341-0.16,0.603-0.496,0.784-1.009c0.181-0.512,0.298-1.236,0.352-2.176
				c0.053-0.938,0.08-2.176,0.08-3.712s-0.027-2.772-0.08-3.712c-0.054-0.938-0.171-1.664-0.352-2.176
				c-0.182-0.513-0.443-0.849-0.784-1.008c-0.341-0.16-0.8-0.24-1.376-0.24h-1.184v14.271H81.427z"/>
		</g>
	</g>
</g>
<g id="Layer_5">
	<g>
		<circle fill="#0000FF" cx="15.151" cy="15.151" r="15.151"/>
	</g>
	<g>
		<path d="M40.544,3.215l2.528,16.896h0.064l2.688-16.896h4.416l2.688,16.896h0.064L55.52,3.215h4.416l-4.16,22.848h-5.152
			l-2.56-16.576H48l-2.56,16.576h-5.152l-4.16-22.848H40.544z"/>
		<path d="M66.4,3.215v8.736h5.376V3.215h4.608v22.848h-4.608V15.919H66.4v10.144h-4.608V3.215H66.4z"/>
		<path d="M89.728,3.215l6.048,22.848h-4.8l-1.056-4.832h-6.08l-1.056,4.832h-4.8l6.048-22.848H89.728z M89.12,17.456L86.912,7.184
			h-0.064L84.64,17.456H89.12z"/>
		<path d="M108.992,6.992H104v19.072h-4.608V6.992H94.4V3.215h14.592V6.992z"/>
		<path d="M118.88,3.215h4.608v22.848h-4.608V3.215z"/>
		<path d="M139.68,3.215v3.776h-8.16v5.376h7.68v3.776h-7.68v9.92h-4.608V3.215H139.68z"/>
	</g>
	<g>
		<path fill="#FFFFFF" d="M9.159,10.703c0-0.84,0.117-1.614,0.35-2.324c0.233-0.709,0.579-1.316,1.036-1.82
			c0.457-0.504,1.036-0.9,1.736-1.19c0.7-0.289,1.507-0.434,2.422-0.434c1.979,0,3.458,0.49,4.438,1.47
			c0.98,0.98,1.47,2.292,1.47,3.934c0,0.784-0.126,1.512-0.378,2.184s-0.714,1.4-1.386,2.184l-1.12,1.26
			c-0.486,0.542-0.836,1.036-1.05,1.484c-0.215,0.448-0.322,1.027-0.322,1.736v0.42h-3.472v-1.092c0-0.933,0.13-1.722,0.392-2.366
			c0.261-0.644,0.709-1.32,1.344-2.03l1.064-1.204c0.392-0.429,0.667-0.891,0.826-1.386c0.159-0.494,0.238-1.022,0.238-1.582
			c0-0.709-0.159-1.283-0.476-1.722c-0.318-0.438-0.794-0.658-1.428-0.658c-0.709,0-1.218,0.285-1.526,0.854
			c-0.308,0.57-0.462,1.312-0.462,2.226v0.7H9.159V10.703z M16.551,25.151h-3.864v-3.696h3.864V25.151z"/>
	</g>
</g>
<g id="Layer_2">
</g>
</svg>
